<?xml version="1.0" encoding="UTF-8" standalone="no"?>
<svg
   xmlns:dc="http://purl.org/dc/elements/1.1/"
   xmlns:cc="http://creativecommons.org/ns#"
   xmlns:rdf="http://www.w3.org/1999/02/22-rdf-syntax-ns#"
   xmlns:svg="http://www.w3.org/2000/svg"
   xmlns="http://www.w3.org/2000/svg"
   xmlns:sodipodi="http://sodipodi.sourceforge.net/DTD/sodipodi-0.dtd"
   xmlns:inkscape="http://www.inkscape.org/namespaces/inkscape"
   id="Layer_1"
   version="1.1"
   viewBox="0 0 22 10.227493"
   xml:space="preserve"
   sodipodi:docname="bus_vuelta.svg"
   inkscape:version="0.92.3 (2405546, 2018-03-11)"
   width="22"
   height="10.227493"><metadata
     id="metadata17"><rdf:RDF><cc:Work
         rdf:about=""><dc:format>image/svg+xml</dc:format><dc:type
           rdf:resource="http://purl.org/dc/dcmitype/StillImage" /><dc:title></dc:title></cc:Work></rdf:RDF></metadata><defs
     id="defs15" /><sodipodi:namedview
     pagecolor="#ffffff"
     bordercolor="#666666"
     borderopacity="1"
     objecttolerance="10"
     gridtolerance="10"
     guidetolerance="10"
     inkscape:pageopacity="0"
     inkscape:pageshadow="2"
     inkscape:window-width="1920"
     inkscape:window-height="1015"
     id="namedview13"
     showgrid="false"
     inkscape:zoom="42.191752"
     inkscape:cx="6.7229816"
     inkscape:cy="7.7187693"
     inkscape:window-x="0"
     inkscape:window-y="0"
     inkscape:window-maximized="1"
     inkscape:current-layer="g4561"
     fit-margin-top="0"
     fit-margin-left="0"
     fit-margin-right="0"
     fit-margin-bottom="0" /><style
     type="text/css"
     id="style2">
	.st0{fill:#D7D2D1;}
	.st1{fill:#5EA3D7;}
</style><g
     inkscape:groupmode="layer"
     id="layer1"
     inkscape:label="Layer 1"
     sodipodi:insensitive="true"><path
       inkscape:connector-curvature="0"
       style="fill:#00acec;fill-opacity:1;stroke-width:0.33366272"
       id="path4"
       d="M 5.7505143,4.785297 H 5.336773 c -0.043374,0 -0.086741,0.0021 -0.1301382,0.0047 -0.4571154,0.03679 -0.8741986,0.266941 -1.1578009,0.647296 -0.046702,0.06356 -0.096767,0.130102 -0.1568332,0.200221 -0.00302,0.0021 -0.00672,0.0047 -0.00672,0.01293 -0.053414,0.06355 -0.1134701,0.130071 -0.1801926,0.196876 -0.016695,0.01997 -0.036719,0.03686 -0.056734,0.05686 -0.050022,0.05325 -0.1067563,0.106958 -0.166833,0.16015 -0.026665,0.0235 -0.056731,0.04654 -0.0834,0.0702 -0.056735,0.0502 -0.1167858,0.09676 -0.1768302,0.140175 -0.036724,0.0266 -0.073435,0.05019 -0.1101279,0.07682 -0.060056,0.03988 -0.1234477,0.07991 -0.1901929,0.120306 -0.040036,0.0235 -0.083399,0.04657 -0.1267811,0.06663 -0.066727,0.03681 -0.1367966,0.0702 -0.2102096,0.100189 -0.046704,0.01997 -0.093429,0.03988 -0.1434741,0.05688 -0.076756,0.0266 -0.1568121,0.05024 -0.2369073,0.0702 -0.050024,0.01378 -0.09677,0.0266 -0.1501326,0.03682 -0.016703,0.0021 -0.033392,0.0021 -0.050061,0.0047 V 5.038856 c 0,-1.134472 0.4270981,-2.202185 1.2111979,-3.019663 h 2.5358349 z m 4.007298,0 H 6.4178406 V 2.019229 h 3.3399717 z m 4.0106277,0 H 10.425133 V 2.019229 h 3.343307 z m 4.010629,0 H 14.435761 V 2.019229 h 3.343308 z M 20.621863,5.73e-4 H 6.3744578 c -1.3279675,0 -2.5792033,0.510516 -3.5267952,1.441429 -0.00371,0.0021 -0.00672,0.0021 -0.00672,0.0047 C 2.5106243,1.770439 2.2336792,2.134141 2.0101297,2.524527 H 0.7889438 c -0.1367957,0 -0.260245,0.08345 -0.3103047,0.21021 l -0.453776,1.131144 c -0.070099,0.173495 0.013345,0.367023 0.183512,0.43376 0.04336,0.01672 0.083401,0.02351 0.1267829,0.02351 0.130116,0 0.2569265,-0.07683 0.306964,-0.206868 L 1.012513,3.192815 H 1.6864989 C 1.4596114,3.773584 1.3361596,4.394189 1.3361596,5.038169 v 2.278914 c 0,0.837506 0.6806637,1.521498 1.5181603,1.521498 H 3.5316721 C 3.5116391,8.728894 3.5016381,8.618781 3.4982841,8.505335 v -0.05021 c 0,-1.344677 1.0944266,-2.439077 2.4390732,-2.439077 1.3446684,0 2.439073,1.0944 2.439073,2.439077 0,0.120292 -0.01056,0.236878 -0.02999,0.353675 H 14.0454 C 14.02543,8.692022 14.01528,8.575236 14.01528,8.455125 c 0,-1.344677 1.094437,-2.439077 2.435748,-2.439077 1.344662,0 2.439064,1.0944 2.439064,2.439077 v 0.04653 c -0.0021,0.113631 -0.01668,0.226904 -0.0332,0.336996 h 1.765078 c 0.760758,0 1.378029,-0.620607 1.378029,-1.381338 V 1.38137 C 21.999999,0.620616 21.382728,0 20.62197,0 Z m 0.71071,4.784724 H 18.4464 V 2.019229 h 2.886173 z"
       class="st1" /><path
       style="fill:#ffffff;fill-opacity:1;stroke:none;stroke-width:1px;stroke-linecap:butt;stroke-linejoin:miter;stroke-opacity:1"
       d="M 2.2042223,7.8810631 4.9772761,5.463529 21.686703,5.4398277 21.639301,1.173591 4.2662367,1.4580068 2.9152617,1.8372278 1.7064947,3.8281382 1.6353907,6.4826855 Z"
       id="path4566"
       inkscape:connector-curvature="0" /><ellipse
       style="fill:#ffffff;fill-opacity:1;stroke:none"
       id="path4568"
       cx="5.9964328"
       cy="8.520999"
       rx="0.73474073"
       ry="0.78214341" /><ellipse
       style="fill:#ffffff;fill-opacity:1;stroke:none"
       id="path4570"
       cx="16.484264"
       cy="8.4617453"
       rx="0.67548746"
       ry="0.74659145" /></g><g
     inkscape:label="Layer 1 copy"
     id="g4561"
     inkscape:groupmode="layer"
     sodipodi:insensitive="true"><g
       transform="translate(-2.0327497,-39.697629)"
       id="g4559"><path
         inkscape:connector-curvature="0"
         style="fill:#00acec;fill-opacity:1;stroke-width:0.33366272"
         id="path4553"
         d="M 7.783264,44.482926 H 7.3695227 c -0.043374,0 -0.086741,0.0021 -0.1301382,0.0047 -0.4571154,0.03679 -0.8741986,0.266941 -1.1578009,0.647296 -0.046702,0.06356 -0.096767,0.130102 -0.1568332,0.200221 -0.00302,0.0021 -0.00672,0.0047 -0.00672,0.01293 -0.053414,0.06355 -0.1134701,0.130071 -0.1801926,0.196876 -0.016695,0.01997 -0.036719,0.03686 -0.056734,0.05686 -0.050022,0.05325 -0.1067563,0.106958 -0.166833,0.16015 -0.026665,0.0235 -0.056731,0.04654 -0.0834,0.0702 -0.056735,0.0502 -0.1167858,0.09676 -0.1768302,0.140175 -0.036724,0.0266 -0.073435,0.05019 -0.1101279,0.07682 -0.060056,0.03988 -0.1234477,0.07991 -0.1901929,0.120306 -0.040036,0.0235 -0.083399,0.04657 -0.1267811,0.06663 -0.066727,0.03681 -0.1367966,0.0702 -0.2102096,0.100189 -0.046704,0.01997 -0.093429,0.03988 -0.1434741,0.05688 -0.076756,0.0266 -0.1568121,0.05024 -0.2369073,0.0702 -0.050024,0.01378 -0.09677,0.0266 -0.1501326,0.03682 -0.016703,0.0021 -0.033392,0.0021 -0.050061,0.0047 v -1.768394 c 0,-1.134472 0.4270981,-2.202185 1.2111979,-3.019663 h 2.5358349 z m 4.007298,0 H 8.4505903 v -2.766068 h 3.3399717 z m 4.010628,0 h -3.343307 v -2.766068 h 3.343307 z m 4.010629,0 h -3.343308 v -2.766068 h 3.343308 z m 2.842794,-4.784724 H 8.4072075 c -1.3279675,0 -2.5792033,0.510516 -3.5267952,1.441429 -0.00371,0.0021 -0.00672,0.0021 -0.00672,0.0047 C 4.543374,41.468068 4.2664289,41.83177 4.0428794,42.222156 H 2.8216935 c -0.1367957,0 -0.260245,0.08345 -0.3103047,0.21021 l -0.453776,1.131144 c -0.070099,0.173495 0.013345,0.367023 0.183512,0.43376 0.04336,0.01672 0.083401,0.02351 0.1267829,0.02351 0.130116,0 0.2569265,-0.07683 0.306964,-0.206868 l 0.370391,-0.923468 h 0.6739859 c -0.2268875,0.580769 -0.3503393,1.201374 -0.3503393,1.845354 v 2.278914 c 0,0.837506 0.6806637,1.521498 1.5181603,1.521498 h 0.6773522 c -0.020033,-0.109687 -0.030034,-0.2198 -0.033388,-0.333246 v -0.05021 c 0,-1.344677 1.0944266,-2.439077 2.4390732,-2.439077 1.3446684,0 2.439073,1.0944 2.439073,2.439077 0,0.120292 -0.01056,0.236878 -0.02999,0.353675 h 5.69896 c -0.01997,-0.116778 -0.03012,-0.233564 -0.03012,-0.353675 0,-1.344677 1.094437,-2.439077 2.435748,-2.439077 1.344662,0 2.439064,1.0944 2.439064,2.439077 v 0.04653 c -0.0021,0.113631 -0.01668,0.226904 -0.0332,0.336996 h 1.765078 c 0.760758,0 1.378029,-0.620607 1.378029,-1.381338 v -6.075943 c 0,-0.760754 -0.617271,-1.38137 -1.378029,-1.38137 z m 0.71071,4.784724 H 20.47915 v -2.766068 h 2.886173 z"
         class="st1" /><path
         style="fill:#d7d2d1;stroke-width:0.33366272"
         inkscape:connector-curvature="0"
         id="path4555"
         d="m 18.483832,46.381492 c -0.974286,0 -1.768403,0.794089 -1.768403,1.771719 0,0.97764 0.794117,1.771763 1.768403,1.771763 0.970976,0 1.748387,-0.764103 1.771748,-1.741727 v -0.0302 c 0,-0.977619 -0.794118,-1.771742 -1.771748,-1.771742 z m 0.02669,2.155065 h -0.008 c -0.184435,0 -0.33367,-0.149414 -0.33367,-0.333662 0,-0.184275 0.149241,-0.333669 0.33367,-0.333669 0.184423,0 0.339205,0.149388 0.339205,0.333669 0,0.184245 -0.143361,0.333662 -0.327799,0.333662 z"
         class="st0" /><path
         style="fill:#d7d2d1;stroke-width:0.33366272"
         inkscape:connector-curvature="0"
         id="path4557"
         d="m 7.970111,46.381492 c -0.9776266,0 -1.7717453,0.794089 -1.7717453,1.771719 0,0 0,0.03322 0,0.03685 0.020005,0.970979 0.7974599,1.735061 1.7717453,1.735061 0.9776471,0 1.7717488,-0.794129 1.7717488,-1.771779 0,-0.977585 -0.7941017,-1.771715 -1.7717488,-1.771717 z m 0.02503,2.155065 h -0.01164 c -0.1844243,0 -0.3336638,-0.149414 -0.3336638,-0.333662 0,-0.184275 0.149239,-0.333669 0.3336638,-0.333669 0.1844229,0 0.3395267,0.149388 0.3395267,0.333669 0,0.184245 -0.1433732,0.333662 -0.3277997,0.333662 z"
         class="st0" /></g></g></svg>